<?xml version="1.0" encoding="UTF-8" standalone="no"?>
<!DOCTYPE svg PUBLIC "-//W3C//DTD SVG 1.1//EN" "http://www.w3.org/Graphics/SVG/1.1/DTD/svg11.dtd">
<svg xmlns="http://www.w3.org/2000/svg" version="1.1" viewBox="0.00 0.00 224.00 223.00">
<g stroke-width="2.00" fill="none" stroke-linecap="butt">
<path stroke="#836a03" vector-effect="non-scaling-stroke" d="
  M 9.33 71.93
  Q 2.49 89.89 1.84 106.99
  Q 0.80 134.38 12.80 159.17
  Q 17.18 168.23 23.17 176.24
  Q 39.63 198.29 65.27 211.01"
/>
<path stroke="#834804" vector-effect="non-scaling-stroke" d="
  M 65.27 211.01
  Q 67.52 212.05 70.40 213.31
  Q 91.66 222.59 114.95 221.64"
/>
<path stroke="#7f3003" vector-effect="non-scaling-stroke" d="
  M 114.95 221.64
  C 128.71 221.65 141.48 219.09 154.27 213.61
  Q 163.57 209.63 168.44 206.48
  Q 193.63 190.17 207.62 166.87
  Q 216.63 151.86 220.94 131.48"
/>
<path stroke="#834804" vector-effect="non-scaling-stroke" d="
  M 220.94 131.48
  Q 222.15 126.83 222.53 122.00
  Q 223.58 108.42 221.80 96.15"
/>
<path stroke="#836a03" vector-effect="non-scaling-stroke" d="
  M 221.80 96.15
  Q 216.65 61.57 192.92 37.08
  Q 179.36 23.07 162.76 14.02
  Q 161.34 13.25 156.81 11.46"
/>
<path stroke="#83771d" vector-effect="non-scaling-stroke" d="
  M 156.81 11.46
  Q 150.46 8.28 142.01 5.96
  Q 104.97 -4.20 70.91 10.25
  Q 55.24 16.89 44.20 25.79
  Q 32.89 34.91 24.84 45.07
  Q 15.84 56.42 9.33 71.93"
/>
<path stroke="#ffd81c" vector-effect="non-scaling-stroke" d="
  M 156.81 11.46
  Q 156.21 11.51 155.91 12.18
  Q 155.58 12.90 155.19 12.31
  Q 155.16 12.27 155.13 12.23
  Q 154.75 11.90 154.16 12.01
  Q 151.70 12.46 149.31 11.79
  C 148.06 11.44 146.96 11.85 145.75 11.31
  Q 144.60 10.79 143.92 11.92
  Q 143.64 12.38 143.19 12.67
  Q 142.27 13.26 141.28 13.67
  Q 135.36 16.08 128.94 18.93
  Q 126.49 20.01 124.62 21.47
  Q 122.60 23.06 120.69 24.99
  Q 119.19 26.50 118.48 28.42
  Q 118.30 28.90 118.72 29.19
  Q 124.01 32.85 129.43 35.66
  Q 135.61 38.86 142.31 42.23
  Q 142.69 42.42 142.79 42.84
  Q 142.94 43.44 142.64 44.07"
/>
<path stroke="#8d8d3d" vector-effect="non-scaling-stroke" d="
  M 142.64 44.07
  Q 130.00 38.10 117.45 31.94
  C 112.71 29.61 109.19 30.18 104.34 32.38
  Q 87.83 39.89 71.47 47.72
  Q 59.79 53.30 47.70 57.92
  Q 44.36 59.19 41.45 63.62"
/>
<path stroke="#ffd81c" vector-effect="non-scaling-stroke" d="
  M 41.45 63.62
  L 40.90 63.62
  Q 40.22 63.63 40.58 63.05
  Q 40.75 62.78 40.63 62.50
  Q 40.38 61.91 39.79 62.15
  Q 36.74 63.35 33.74 64.99
  Q 32.79 65.51 31.74 65.84
  C 30.02 66.37 28.44 66.98 26.68 67.27
  Q 22.77 67.93 18.82 68.96
  Q 17.17 69.39 15.07 70.80
  Q 13.36 71.95 11.59 71.42
  Q 11.17 71.29 10.96 71.69
  Q 10.72 72.15 10.23 72.33
  Q 9.94 72.43 9.33 71.93"
/>
<path stroke="#887114" vector-effect="non-scaling-stroke" d="
  M 39.79 144.47
  C 39.65 149.34 39.15 156.41 41.22 160.49
  Q 42.95 163.89 46.54 165.93
  Q 51.23 168.60 54.67 170.21"
/>
<path stroke="#fb9202" vector-effect="non-scaling-stroke" d="
  M 54.67 170.21
  Q 64.26 180.92 74.40 189.22"
/>
<path stroke="#ffaa03" vector-effect="non-scaling-stroke" d="
  M 74.40 189.22
  Q 71.61 193.64 70.40 197.97
  Q 70.28 198.42 70.61 198.76
  Q 71.14 199.29 70.64 200.13
  Q 67.60 205.25 65.27 211.01"
/>
<path stroke="#8d5f24" vector-effect="non-scaling-stroke" d="
  M 185.57 61.26
  Q 183.75 69.65 175.50 69.60
  Q 168.72 69.55 166.19 69.33"
/>
<path stroke="#8d8023" vector-effect="non-scaling-stroke" d="
  M 166.19 69.33
  Q 150.82 69.31 146.51 69.16
  Q 146.10 69.14 145.36 68.52"
/>
<path stroke="#8a9a97" vector-effect="non-scaling-stroke" d="
  M 145.36 68.52
  Q 144.96 67.89 144.73 67.78
  Q 129.47 60.16 113.95 53.07
  Q 111.85 52.11 109.85 52.64
  Q 107.25 53.32 99.20 57.16
  Q 78.72 66.93 60.13 76.67
  Q 59.19 77.16 59.19 78.22
  L 59.24 145.20"
/>
<path stroke="#162635" vector-effect="non-scaling-stroke" d="
  M 59.24 145.20
  Q 58.46 145.30 58.43 144.32
  Q 58.42 143.54 57.67 143.76
  Q 57.54 143.80 57.45 143.91
  Q 57.07 144.37 56.50 144.19
  Q 53.73 143.30 51.08 142.12
  Q 49.32 141.33 47.52 141.39
  Q 45.26 141.46 42.87 141.83
  Q 41.85 141.99 41.32 141.15
  Q 41.22 141.00 41.05 140.93
  Q 40.96 140.90 40.88 140.85
  Q 40.25 140.47 40.22 141.25
  Q 40.16 142.90 39.79 144.47"
/>
<path stroke="#8d8023" vector-effect="non-scaling-stroke" d="
  M 39.79 144.47
  Q 39.67 108.11 39.90 71.76
  Q 39.93 66.63 41.45 63.62"
/>
<path stroke="#ffaa03" vector-effect="non-scaling-stroke" d="
  M 221.80 96.15
  Q 215.02 96.15 210.38 89.84
  Q 210.09 89.45 210.21 88.97
  C 210.42 88.09 210.15 87.10 209.48 86.38
  Q 197.79 73.75 185.57 61.26"
/>
<path stroke="#8d8023" vector-effect="non-scaling-stroke" d="
  M 185.57 61.26
  Q 183.42 53.36 176.88 51.20
  C 172.38 49.71 165.48 50.74 160.21 50.62
  Q 157.54 50.56 154.64 49.35
  Q 148.59 46.82 142.64 44.07"
/>
<path stroke="#fb7003" vector-effect="non-scaling-stroke" d="
  M 114.95 221.64
  Q 112.38 221.53 110.06 220.11
  Q 109.63 219.85 109.13 219.82
  Q 107.42 219.71 106.09 218.74
  C 102.13 215.86 99.45 212.06 95.69 209.04
  Q 88.58 203.33 81.37 196.14
  Q 77.97 192.76 74.40 189.22"
/>
<path stroke="#843814" vector-effect="non-scaling-stroke" d="
  M 54.67 170.21
  Q 79.51 182.35 103.50 194.22
  C 107.75 196.32 112.30 198.02 116.66 196.09
  Q 123.01 193.26 128.66 190.41
  Q 141.28 184.03 167.20 171.65
  C 175.55 167.66 184.79 165.34 184.65 154.00
  Q 184.54 144.73 184.51 136.23
  Q 184.48 127.43 174.88 126.18"
/>
<path stroke="#fb7003" vector-effect="non-scaling-stroke" d="
  M 174.88 126.18
  Q 174.57 126.09 174.34 125.56
  Q 174.11 125.04 173.54 125.13
  Q 172.57 125.30 172.33 124.34
  Q 171.81 122.16 170.78 120.06
  Q 169.80 118.05 169.49 115.89
  Q 169.06 112.84 167.70 109.85
  Q 167.51 109.45 167.13 109.23
  Q 166.68 108.97 166.35 108.55
  Q 165.82 107.88 166.67 107.88
  Q 168.50 107.89 170.47 107.86
  Q 170.56 107.86 170.56 107.77
  L 170.56 107.76
  Q 170.56 107.57 170.37 107.58
  Q 167.01 107.75 163.67 107.40
  C 161.79 107.20 160.07 107.91 158.15 107.83
  Q 149.55 107.48 140.76 107.28
  Q 139.56 107.25 140.62 106.97
  Q 140.87 106.90 141.29 106.89"
/>
<path stroke="#778380" vector-effect="non-scaling-stroke" d="
  M 59.33 146.04
  L 59.31 148.25
  Q 59.31 148.77 59.69 149.12
  Q 61.85 151.10 64.48 152.47
  C 80.10 160.55 96.05 167.95 111.76 175.64
  Q 112.45 175.98 112.66 175.45"
/>
<path stroke="#5e6a74" vector-effect="non-scaling-stroke" d="
  M 112.66 175.45
  Q 112.79 175.47 112.92 175.48
  Q 113.01 175.49 113.09 175.45
  Q 137.06 163.68 162.77 151.62
  A 3.85 3.84 -11.9 0 0 164.98 148.24
  Q 165.11 142.75 165.08 137.01
  Q 165.06 132.39 166.32 129.66"
/>
<path stroke="#fde576" vector-effect="non-scaling-stroke" d="
  M 145.36 68.52
  L 145.36 69.45
  Q 145.36 70.08 144.74 70.01
  Q 138.58 69.30 135.40 70.57
  Q 132.25 71.84 131.02 74.42
  Q 130.22 76.10 129.94 78.48
  Q 129.72 80.31 130.76 81.98
  Q 133.46 86.34 139.98 87.29"
/>
<path stroke="#878f8c" vector-effect="non-scaling-stroke" d="
  M 139.98 87.29
  Q 135.57 88.02 133.77 86.72
  Q 125.81 80.98 116.23 80.08
  C 104.08 78.93 90.88 85.91 84.66 96.41
  Q 72.82 116.43 86.30 135.16"
/>
<path stroke="#ebf7e2" vector-effect="non-scaling-stroke" d="
  M 86.30 135.16
  Q 84.01 135.24 82.70 136.98
  Q 82.42 137.36 81.99 137.51
  Q 80.73 137.96 80.36 139.15
  Q 80.26 139.45 79.96 139.56
  Q 77.33 140.49 75.25 142.20
  Q 72.78 144.22 70.02 145.51
  Q 69.57 145.72 69.08 145.63
  Q 67.11 145.24 65.49 145.97
  Q 65.22 146.09 65.00 145.90
  Q 64.68 145.63 64.28 145.74
  Q 62.19 146.30 60.35 147.22
  Q 59.96 147.42 59.78 147.03
  L 59.33 146.04"
/>
<path stroke="#868b88" vector-effect="non-scaling-stroke" d="
  M 59.33 146.04
  Q 59.18 145.66 59.24 145.20"
/>
<path stroke="#fb7003" vector-effect="non-scaling-stroke" d="
  M 220.94 131.48
  L 220.61 131.67
  Q 220.09 131.97 220.15 131.33
  Q 220.16 131.19 220.08 131.08
  Q 219.91 130.86 219.64 130.78
  Q 218.48 130.43 218.15 129.28
  Q 218.04 128.88 217.62 128.87
  Q 217.15 128.86 217.12 128.39
  Q 217.10 127.94 216.77 127.64
  Q 214.20 125.29 211.83 122.54
  Q 211.14 121.74 210.28 121.17
  C 209.25 120.49 208.66 119.96 207.95 118.98
  Q 207.57 118.47 206.93 118.27
  A 2.10 2.09 76.9 0 1 206.08 117.74
  L 185.02 96.21"
/>
<path stroke="#8a5419" vector-effect="non-scaling-stroke" d="
  M 185.02 96.21
  Q 183.32 87.81 175.00 87.47
  Q 172.55 87.37 165.39 87.43"
/>
<path stroke="#ffaa03" vector-effect="non-scaling-stroke" d="
  M 165.39 87.43
  L 166.19 69.33"
/>
<path stroke="#8a7518" vector-effect="non-scaling-stroke" d="
  M 165.39 87.43
  L 139.98 87.29"
/>
<path stroke="#863c18" vector-effect="non-scaling-stroke" d="
  M 185.02 96.21
  C 184.85 101.78 182.54 107.02 176.25 107.02
  Q 158.76 107.04 141.29 106.89"
/>
<path stroke="#8a5419" vector-effect="non-scaling-stroke" d="
  M 141.29 106.89
  Q 136.40 106.78 131.50 106.78
  C 129.68 106.79 127.54 106.62 126.07 105.41
  Q 123.30 103.13 120.39 101.62
  C 112.79 97.66 104.52 101.15 100.51 108.54
  C 97.55 113.98 98.94 121.13 103.53 125.44
  C 111.20 132.64 120.65 131.00 127.75 124.18
  A 3.35 3.35 0.0 0 1 132.07 123.92
  L 140.30 130.06"
/>
<path stroke="#788784" vector-effect="non-scaling-stroke" d="
  M 140.30 130.06
  Q 141.76 133.76 137.45 138.22
  Q 130.58 145.33 121.46 147.86
  Q 112.45 150.37 103.58 147.56
  Q 93.29 144.32 86.30 135.16"
/>
<path stroke="#885015" vector-effect="non-scaling-stroke" d="
  M 174.88 126.18
  Q 169.74 125.98 166.32 129.66"
/>
<path stroke="#d5a263" vector-effect="non-scaling-stroke" d="
  M 166.32 129.66
  L 142.75 130.16"
/>
<path stroke="#eebc6f" vector-effect="non-scaling-stroke" d="
  M 142.75 130.16
  Q 139.31 129.14 140.30 130.06"
/>
<path stroke="#c4d6ce" vector-effect="non-scaling-stroke" d="
  M 112.66 175.45
  L 111.89 173.68
  Q 111.69 173.23 111.70 172.75
  L 111.80 151.71
  Q 111.81 151.09 112.42 150.98
  C 114.93 150.50 117.39 150.41 119.94 149.76
  Q 130.22 147.14 138.27 139.01
  Q 142.14 135.10 142.75 130.16"
/>
</g>
<path fill="#070804" d="
  M 106.45 0.00
  L 119.67 0.00
  Q 122.35 1.47 126.54 1.15
  Q 127.49 1.08 128.36 1.31
  Q 129.22 1.53 130.00 1.88
  Q 130.51 2.12 131.06 2.02
  Q 132.93 1.68 134.26 2.64
  Q 134.82 3.05 135.50 2.97
  Q 137.12 2.80 138.41 3.63
  Q 139.22 4.15 140.16 3.98
  Q 141.36 3.77 142.24 4.55
  Q 142.68 4.95 143.27 4.93
  Q 146.29 4.86 148.41 6.21
  Q 149.31 6.78 150.40 7.12
  Q 151.78 7.55 153.03 8.30
  C 154.43 9.14 155.77 8.93 157.10 9.97
  Q 158.08 10.72 159.20 11.02
  Q 162.00 11.77 164.55 13.43
  Q 166.48 14.69 168.77 15.79
  Q 171.67 17.19 174.08 19.51
  C 174.37 19.79 174.66 19.90 175.06 19.95
  A 1.34 1.32 -14.0 0 1 175.99 20.50
  C 177.15 22.16 179.04 22.58 180.50 24.02
  Q 181.88 25.37 183.30 26.66
  Q 183.60 26.93 184.00 26.98
  Q 184.45 27.04 184.78 27.35
  Q 187.26 29.72 189.67 32.24
  C 190.46 33.07 191.57 33.22 191.92 34.33
  A 1.53 1.47 7.3 0 0 192.61 35.19
  Q 195.11 36.63 196.21 38.72
  A 2.29 2.27 2.4 0 0 196.99 39.56
  Q 199.01 40.89 199.93 43.08
  C 200.59 44.63 202.08 45.38 203.04 46.68
  Q 213.85 61.32 219.53 79.01
  Q 221.13 84.02 224.00 99.41
  L 224.00 125.11
  Q 222.94 127.28 222.95 129.76
  Q 222.96 130.28 222.73 130.75
  Q 221.94 132.36 221.96 134.14
  A 1.86 1.81 -29.8 0 1 221.67 135.16
  Q 221.14 136.02 220.98 137.01
  Q 220.80 138.19 220.41 139.39
  Q 219.13 143.28 218.00 147.14
  Q 217.80 147.79 217.45 148.35
  C 216.84 149.34 217.12 150.18 216.57 151.28
  Q 215.86 152.71 215.19 154.08
  Q 214.97 154.52 215.02 155.02
  Q 215.08 155.54 214.69 155.88
  Q 214.37 156.16 214.19 156.55
  L 212.87 159.48
  Q 212.70 159.84 212.36 160.06
  Q 211.99 160.30 212.01 160.74
  Q 212.03 161.25 211.83 161.71
  Q 211.40 162.76 210.71 163.65
  Q 209.76 164.88 209.27 166.23
  Q 208.15 169.34 205.63 172.10
  C 204.41 173.43 204.35 175.19 203.07 176.43
  C 201.07 178.38 199.68 180.66 197.80 182.70
  Q 194.03 186.79 190.36 190.83
  C 188.94 192.40 187.18 193.33 185.75 194.93
  C 183.35 197.61 180.09 199.55 177.45 202.04
  Q 176.12 203.29 174.23 204.41
  C 171.99 205.73 170.07 207.45 167.66 208.47
  Q 165.57 209.34 163.73 210.77
  Q 163.51 210.94 163.25 210.97
  Q 163.01 211.01 162.76 210.99
  Q 162.24 210.96 161.79 211.23
  Q 155.59 214.98 148.58 216.98
  Q 148.34 217.05 148.15 217.21
  Q 147.99 217.33 147.95 217.55
  A 0.56 0.55 -81.8 0 1 147.34 218.01
  Q 145.84 217.83 144.46 218.69
  Q 143.79 219.10 143.01 218.97
  Q 141.90 218.79 141.08 219.48
  Q 140.65 219.84 140.11 219.95
  L 124.87 223.00
  L 99.23 223.00
  Q 91.08 221.36 83.11 219.35
  Q 80.40 218.67 77.39 217.46
  Q 74.55 216.33 71.77 215.29
  Q 69.87 214.58 68.15 213.69
  Q 66.28 212.73 64.51 212.04
  Q 61.74 210.97 59.35 209.44
  Q 55.69 207.11 51.68 204.71
  Q 50.93 204.26 50.32 203.64
  Q 49.55 202.86 48.65 202.36
  Q 47.36 201.63 46.20 200.62
  C 44.87 199.46 43.20 198.85 42.15 197.58
  Q 40.74 195.89 38.85 194.72
  Q 37.10 193.64 35.45 191.96
  Q 31.46 187.90 27.68 184.09
  Q 25.80 182.20 24.36 179.96
  Q 22.58 177.20 20.37 174.85
  Q 19.97 174.43 19.97 173.84
  Q 19.97 173.33 19.57 173.00
  Q 17.63 171.36 16.87 168.91
  C 16.46 167.63 15.27 166.98 14.68 165.76
  Q 12.40 161.04 10.11 156.53
  C 9.60 155.52 8.82 155.09 9.01 153.76
  A 1.46 1.42 32.0 0 0 8.76 152.73
  L 8.15 151.84
  A 1.07 1.05 -57.3 0 1 7.98 151.02
  Q 8.15 150.25 7.46 149.99
  A 0.74 0.74 0.0 0 1 7.00 149.19
  Q 7.15 148.19 6.46 147.43
  Q 5.93 146.84 6.00 146.05
  Q 6.08 145.20 5.50 144.56
  A 1.86 1.84 -64.6 0 1 5.01 143.16
  Q 5.09 142.04 4.32 141.14
  Q 3.84 140.57 3.98 139.84
  Q 4.32 138.11 3.31 136.76
  Q 2.93 136.26 3.02 135.64
  Q 3.27 133.86 2.31 132.31
  Q 2.02 131.83 2.02 131.26
  Q 2.07 128.39 1.90 127.43
  Q 1.21 123.31 0.00 119.51
  L 0.00 102.27
  Q 1.46 101.19 1.09 97.75
  Q 1.03 97.19 1.38 96.75
  C 2.45 95.43 2.03 93.78 2.00 92.22
  C 1.97 90.39 3.19 89.23 3.04 87.47
  Q 2.99 86.81 3.37 86.26
  Q 4.30 84.93 4.00 83.20
  Q 3.88 82.49 4.32 81.92
  Q 5.33 80.64 4.97 79.01
  A 0.87 0.87 0.0 0 1 5.38 78.07
  Q 5.65 77.92 5.84 77.67
  Q 6.13 77.27 6.01 76.79
  Q 5.72 75.60 6.59 74.80
  Q 6.98 74.45 6.99 73.92
  Q 7.01 72.90 7.66 72.05
  A 1.68 1.62 -23.1 0 0 7.99 71.27
  C 8.05 70.78 7.95 70.48 8.21 70.00
  Q 9.36 67.86 10.14 65.57
  A 1.92 1.83 -12.4 0 1 10.69 64.75
  C 12.08 63.53 11.65 62.38 12.46 61.04
  Q 13.63 59.10 14.78 57.50
  A 1.16 1.12 64.3 0 0 14.99 56.87
  Q 14.99 56.73 15.03 56.60
  Q 15.06 56.49 15.13 56.41
  Q 16.88 54.34 18.02 51.70
  Q 18.23 51.21 18.63 50.86
  Q 19.62 49.99 19.98 48.83
  A 1.92 1.84 79.4 0 1 20.51 48.02
  C 22.18 46.57 22.63 44.81 24.12 43.36
  Q 26.64 40.90 28.89 38.12
  C 30.22 36.47 32.30 36.08 33.03 33.92
  Q 33.19 33.47 33.56 33.18
  Q 38.66 29.19 43.04 24.48
  Q 43.37 24.12 43.85 24.03
  Q 44.45 23.92 44.94 23.52
  Q 50.88 18.68 58.21 15.14
  A 2.79 2.70 7.8 0 0 59.00 14.56
  Q 59.33 14.22 59.77 14.04
  Q 62.21 13.05 64.91 11.50
  Q 68.01 9.72 70.92 8.26
  Q 71.31 8.06 71.74 8.04
  Q 72.68 7.98 73.50 7.52
  Q 76.11 6.04 79.07 5.95
  Q 79.59 5.93 80.02 5.63
  Q 80.92 5.01 82.04 4.96
  A 1.09 1.07 -72.0 0 0 82.85 4.54
  Q 83.39 3.84 84.28 4.00
  Q 85.04 4.13 85.76 3.82
  Q 87.87 2.90 90.04 3.00
  A 1.21 1.17 28.2 0 0 90.78 2.79
  L 91.53 2.28
  A 1.72 1.68 -58.4 0 1 92.64 2.00
  Q 94.85 2.24 96.86 1.63
  Q 98.52 1.12 101.02 1.19
  Q 104.32 1.29 106.45 0.00
  Z
  M 9.33 71.93
  Q 2.49 89.89 1.84 106.99
  Q 0.80 134.38 12.80 159.17
  Q 17.18 168.23 23.17 176.24
  Q 39.63 198.29 65.27 211.01
  Q 67.52 212.05 70.40 213.31
  Q 91.66 222.59 114.95 221.64
  C 128.71 221.65 141.48 219.09 154.27 213.61
  Q 163.57 209.63 168.44 206.48
  Q 193.63 190.17 207.62 166.87
  Q 216.63 151.86 220.94 131.48
  Q 222.15 126.83 222.53 122.00
  Q 223.58 108.42 221.80 96.15
  Q 216.65 61.57 192.92 37.08
  Q 179.36 23.07 162.76 14.02
  Q 161.34 13.25 156.81 11.46
  Q 150.46 8.28 142.01 5.96
  Q 104.97 -4.20 70.91 10.25
  Q 55.24 16.89 44.20 25.79
  Q 32.89 34.91 24.84 45.07
  Q 15.84 56.42 9.33 71.93
  Z"
/>
<path fill="#ffe536" d="
  M 156.81 11.46
  Q 156.21 11.51 155.91 12.18
  Q 155.58 12.90 155.19 12.31
  Q 155.16 12.27 155.13 12.23
  Q 154.75 11.90 154.16 12.01
  Q 151.70 12.46 149.31 11.79
  C 148.06 11.44 146.96 11.85 145.75 11.31
  Q 144.60 10.79 143.92 11.92
  Q 143.64 12.38 143.19 12.67
  Q 142.27 13.26 141.28 13.67
  Q 135.36 16.08 128.94 18.93
  Q 126.49 20.01 124.62 21.47
  Q 122.60 23.06 120.69 24.99
  Q 119.19 26.50 118.48 28.42
  Q 118.30 28.90 118.72 29.19
  Q 124.01 32.85 129.43 35.66
  Q 135.61 38.86 142.31 42.23
  Q 142.69 42.42 142.79 42.84
  Q 142.94 43.44 142.64 44.07
  Q 130.00 38.10 117.45 31.94
  C 112.71 29.61 109.19 30.18 104.34 32.38
  Q 87.83 39.89 71.47 47.72
  Q 59.79 53.30 47.70 57.92
  Q 44.36 59.19 41.45 63.62
  L 40.90 63.62
  Q 40.22 63.63 40.58 63.05
  Q 40.75 62.78 40.63 62.50
  Q 40.38 61.91 39.79 62.15
  Q 36.74 63.35 33.74 64.99
  Q 32.79 65.51 31.74 65.84
  C 30.02 66.37 28.44 66.98 26.68 67.27
  Q 22.77 67.93 18.82 68.96
  Q 17.17 69.39 15.07 70.80
  Q 13.36 71.95 11.59 71.42
  Q 11.17 71.29 10.96 71.69
  Q 10.72 72.15 10.23 72.33
  Q 9.94 72.43 9.33 71.93
  Q 15.84 56.42 24.84 45.07
  Q 32.89 34.91 44.20 25.79
  Q 55.24 16.89 70.91 10.25
  Q 104.97 -4.20 142.01 5.96
  Q 150.46 8.28 156.81 11.46
  Z"
/>
<path fill="#ffcb02" d="
  M 156.81 11.46
  Q 161.34 13.25 162.76 14.02
  Q 179.36 23.07 192.92 37.08
  Q 216.65 61.57 221.80 96.15
  Q 215.02 96.15 210.38 89.84
  Q 210.09 89.45 210.21 88.97
  C 210.42 88.09 210.15 87.10 209.48 86.38
  Q 197.79 73.75 185.57 61.26
  Q 183.42 53.36 176.88 51.20
  C 172.38 49.71 165.48 50.74 160.21 50.62
  Q 157.54 50.56 154.64 49.35
  Q 148.59 46.82 142.64 44.07
  Q 142.94 43.44 142.79 42.84
  Q 142.69 42.42 142.31 42.23
  Q 135.61 38.86 129.43 35.66
  Q 124.01 32.85 118.72 29.19
  Q 118.30 28.90 118.48 28.42
  Q 119.19 26.50 120.69 24.99
  Q 122.60 23.06 124.62 21.47
  Q 126.49 20.01 128.94 18.93
  Q 135.36 16.08 141.28 13.67
  Q 142.27 13.26 143.19 12.67
  Q 143.64 12.38 143.92 11.92
  Q 144.60 10.79 145.75 11.31
  C 146.96 11.85 148.06 11.44 149.31 11.79
  Q 151.70 12.46 154.16 12.01
  Q 154.75 11.90 155.13 12.23
  Q 155.16 12.27 155.19 12.31
  Q 155.58 12.90 155.91 12.18
  Q 156.21 11.51 156.81 11.46
  Z"
/>
<path fill="#1a3544" d="
  M 142.64 44.07
  Q 148.59 46.82 154.64 49.35
  Q 157.54 50.56 160.21 50.62
  C 165.48 50.74 172.38 49.71 176.88 51.20
  Q 183.42 53.36 185.57 61.26
  Q 183.75 69.65 175.50 69.60
  Q 168.72 69.55 166.19 69.33
  Q 150.82 69.31 146.51 69.16
  Q 146.10 69.14 145.36 68.52
  Q 144.96 67.89 144.73 67.78
  Q 129.47 60.16 113.95 53.07
  Q 111.85 52.11 109.85 52.64
  Q 107.25 53.32 99.20 57.16
  Q 78.72 66.93 60.13 76.67
  Q 59.19 77.16 59.19 78.22
  L 59.24 145.20
  Q 58.46 145.30 58.43 144.32
  Q 58.42 143.54 57.67 143.76
  Q 57.54 143.80 57.45 143.91
  Q 57.07 144.37 56.50 144.19
  Q 53.73 143.30 51.08 142.12
  Q 49.32 141.33 47.52 141.39
  Q 45.26 141.46 42.87 141.83
  Q 41.85 141.99 41.32 141.15
  Q 41.22 141.00 41.05 140.93
  Q 40.96 140.90 40.88 140.85
  Q 40.25 140.47 40.22 141.25
  Q 40.16 142.90 39.79 144.47
  Q 39.67 108.11 39.90 71.76
  Q 39.93 66.63 41.45 63.62
  Q 44.36 59.19 47.70 57.92
  Q 59.79 53.30 71.47 47.72
  Q 87.83 39.89 104.34 32.38
  C 109.19 30.18 112.71 29.61 117.45 31.94
  Q 130.00 38.10 142.64 44.07
  Z"
/>
<path fill="#fafeea" d="
  M 145.36 68.52
  L 145.36 69.45
  Q 145.36 70.08 144.74 70.01
  Q 138.58 69.30 135.40 70.57
  Q 132.25 71.84 131.02 74.42
  Q 130.22 76.10 129.94 78.48
  Q 129.72 80.31 130.76 81.98
  Q 133.46 86.34 139.98 87.29
  Q 135.57 88.02 133.77 86.72
  Q 125.81 80.98 116.23 80.08
  C 104.08 78.93 90.88 85.91 84.66 96.41
  Q 72.82 116.43 86.30 135.16
  Q 84.01 135.24 82.70 136.98
  Q 82.42 137.36 81.99 137.51
  Q 80.73 137.96 80.36 139.15
  Q 80.26 139.45 79.96 139.56
  Q 77.33 140.49 75.25 142.20
  Q 72.78 144.22 70.02 145.51
  Q 69.57 145.72 69.08 145.63
  Q 67.11 145.24 65.49 145.97
  Q 65.22 146.09 65.00 145.90
  Q 64.68 145.63 64.28 145.74
  Q 62.19 146.30 60.35 147.22
  Q 59.96 147.42 59.78 147.03
  L 59.33 146.04
  Q 59.18 145.66 59.24 145.20
  L 59.19 78.22
  Q 59.19 77.16 60.13 76.67
  Q 78.72 66.93 99.20 57.16
  Q 107.25 53.32 109.85 52.64
  Q 111.85 52.11 113.95 53.07
  Q 129.47 60.16 144.73 67.78
  Q 144.96 67.89 145.36 68.52
  Z"
/>
<path fill="#ff8803" d="
  M 185.57 61.26
  Q 197.79 73.75 209.48 86.38
  C 210.15 87.10 210.42 88.09 210.21 88.97
  Q 210.09 89.45 210.38 89.84
  Q 215.02 96.15 221.80 96.15
  Q 223.58 108.42 222.53 122.00
  Q 222.15 126.83 220.94 131.48
  L 220.61 131.67
  Q 220.09 131.97 220.15 131.33
  Q 220.16 131.19 220.08 131.08
  Q 219.91 130.86 219.64 130.78
  Q 218.48 130.43 218.15 129.28
  Q 218.04 128.88 217.62 128.87
  Q 217.15 128.86 217.12 128.39
  Q 217.10 127.94 216.77 127.64
  Q 214.20 125.29 211.83 122.54
  Q 211.14 121.74 210.28 121.17
  C 209.25 120.49 208.66 119.96 207.95 118.98
  Q 207.57 118.47 206.93 118.27
  A 2.10 2.09 76.9 0 1 206.08 117.74
  L 185.02 96.21
  Q 183.32 87.81 175.00 87.47
  Q 172.55 87.37 165.39 87.43
  L 166.19 69.33
  Q 168.72 69.55 175.50 69.60
  Q 183.75 69.65 185.57 61.26
  Z"
/>
<path fill="#ffcb02" d="
  M 41.45 63.62
  Q 39.93 66.63 39.90 71.76
  Q 39.67 108.11 39.79 144.47
  C 39.65 149.34 39.15 156.41 41.22 160.49
  Q 42.95 163.89 46.54 165.93
  Q 51.23 168.60 54.67 170.21
  Q 64.26 180.92 74.40 189.22
  Q 71.61 193.64 70.40 197.97
  Q 70.28 198.42 70.61 198.76
  Q 71.14 199.29 70.64 200.13
  Q 67.60 205.25 65.27 211.01
  Q 39.63 198.29 23.17 176.24
  Q 17.18 168.23 12.80 159.17
  Q 0.80 134.38 1.84 106.99
  Q 2.49 89.89 9.33 71.93
  Q 9.94 72.43 10.23 72.33
  Q 10.72 72.15 10.96 71.69
  Q 11.17 71.29 11.59 71.42
  Q 13.36 71.95 15.07 70.80
  Q 17.17 69.39 18.82 68.96
  Q 22.77 67.93 26.68 67.27
  C 28.44 66.98 30.02 66.37 31.74 65.84
  Q 32.79 65.51 33.74 64.99
  Q 36.74 63.35 39.79 62.15
  Q 40.38 61.91 40.63 62.50
  Q 40.75 62.78 40.58 63.05
  Q 40.22 63.63 40.90 63.62
  L 41.45 63.62
  Z"
/>
<path fill="#ffcb02" d="
  M 145.36 68.52
  Q 146.10 69.14 146.51 69.16
  Q 150.82 69.31 166.19 69.33
  L 165.39 87.43
  L 139.98 87.29
  Q 133.46 86.34 130.76 81.98
  Q 129.72 80.31 129.94 78.48
  Q 130.22 76.10 131.02 74.42
  Q 132.25 71.84 135.40 70.57
  Q 138.58 69.30 144.74 70.01
  Q 145.36 70.08 145.36 69.45
  L 145.36 68.52
  Z"
/>
<path fill="#141f2e" d="
  M 139.98 87.29
  L 165.39 87.43
  Q 172.55 87.37 175.00 87.47
  Q 183.32 87.81 185.02 96.21
  C 184.85 101.78 182.54 107.02 176.25 107.02
  Q 158.76 107.04 141.29 106.89
  Q 136.40 106.78 131.50 106.78
  C 129.68 106.79 127.54 106.62 126.07 105.41
  Q 123.30 103.13 120.39 101.62
  C 112.79 97.66 104.52 101.15 100.51 108.54
  C 97.55 113.98 98.94 121.13 103.53 125.44
  C 111.20 132.64 120.65 131.00 127.75 124.18
  A 3.35 3.35 0.0 0 1 132.07 123.92
  L 140.30 130.06
  Q 141.76 133.76 137.45 138.22
  Q 130.58 145.33 121.46 147.86
  Q 112.45 150.37 103.58 147.56
  Q 93.29 144.32 86.30 135.16
  Q 72.82 116.43 84.66 96.41
  C 90.88 85.91 104.08 78.93 116.23 80.08
  Q 125.81 80.98 133.77 86.72
  Q 135.57 88.02 139.98 87.29
  Z"
/>
<path fill="#f75802" d="
  M 185.02 96.21
  L 206.08 117.74
  A 2.10 2.09 76.9 0 0 206.93 118.27
  Q 207.57 118.47 207.95 118.98
  C 208.66 119.96 209.25 120.49 210.28 121.17
  Q 211.14 121.74 211.83 122.54
  Q 214.20 125.29 216.77 127.64
  Q 217.10 127.94 217.12 128.39
  Q 217.15 128.86 217.62 128.87
  Q 218.04 128.88 218.15 129.28
  Q 218.48 130.43 219.64 130.78
  Q 219.91 130.86 220.08 131.08
  Q 220.16 131.19 220.15 131.33
  Q 220.09 131.97 220.61 131.67
  L 220.94 131.48
  Q 216.63 151.86 207.62 166.87
  Q 193.63 190.17 168.44 206.48
  Q 163.57 209.63 154.27 213.61
  C 141.48 219.09 128.71 221.65 114.95 221.64
  Q 112.38 221.53 110.06 220.11
  Q 109.63 219.85 109.13 219.82
  Q 107.42 219.71 106.09 218.74
  C 102.13 215.86 99.45 212.06 95.69 209.04
  Q 88.58 203.33 81.37 196.14
  Q 77.97 192.76 74.40 189.22
  Q 64.26 180.92 54.67 170.21
  Q 79.51 182.35 103.50 194.22
  C 107.75 196.32 112.30 198.02 116.66 196.09
  Q 123.01 193.26 128.66 190.41
  Q 141.28 184.03 167.20 171.65
  C 175.55 167.66 184.79 165.34 184.65 154.00
  Q 184.54 144.73 184.51 136.23
  Q 184.48 127.43 174.88 126.18
  Q 174.57 126.09 174.34 125.56
  Q 174.11 125.04 173.54 125.13
  Q 172.57 125.30 172.33 124.34
  Q 171.81 122.16 170.78 120.06
  Q 169.80 118.05 169.49 115.89
  Q 169.06 112.84 167.70 109.85
  Q 167.51 109.45 167.13 109.23
  Q 166.68 108.97 166.35 108.55
  Q 165.82 107.88 166.67 107.88
  Q 168.50 107.89 170.47 107.86
  Q 170.56 107.86 170.56 107.77
  L 170.56 107.76
  Q 170.56 107.57 170.37 107.58
  Q 167.01 107.75 163.67 107.40
  C 161.79 107.20 160.07 107.91 158.15 107.83
  Q 149.55 107.48 140.76 107.28
  Q 139.56 107.25 140.62 106.97
  Q 140.87 106.90 141.29 106.89
  Q 158.76 107.04 176.25 107.02
  C 182.54 107.02 184.85 101.78 185.02 96.21
  Z"
/>
<path fill="#ff8803" d="
  M 141.29 106.89
  Q 140.87 106.90 140.62 106.97
  Q 139.56 107.25 140.76 107.28
  Q 149.55 107.48 158.15 107.83
  C 160.07 107.91 161.79 107.20 163.67 107.40
  Q 167.01 107.75 170.37 107.58
  Q 170.56 107.57 170.56 107.76
  L 170.56 107.77
  Q 170.56 107.86 170.47 107.86
  Q 168.50 107.89 166.67 107.88
  Q 165.82 107.88 166.35 108.55
  Q 166.68 108.97 167.13 109.23
  Q 167.51 109.45 167.70 109.85
  Q 169.06 112.84 169.49 115.89
  Q 169.80 118.05 170.78 120.06
  Q 171.81 122.16 172.33 124.34
  Q 172.57 125.30 173.54 125.13
  Q 174.11 125.04 174.34 125.56
  Q 174.57 126.09 174.88 126.18
  Q 169.74 125.98 166.32 129.66
  L 142.75 130.16
  Q 139.31 129.14 140.30 130.06
  L 132.07 123.92
  A 3.35 3.35 0.0 0 0 127.75 124.18
  C 120.65 131.00 111.20 132.64 103.53 125.44
  C 98.94 121.13 97.55 113.98 100.51 108.54
  C 104.52 101.15 112.79 97.66 120.39 101.62
  Q 123.30 103.13 126.07 105.41
  C 127.54 106.62 129.68 106.79 131.50 106.78
  Q 136.40 106.78 141.29 106.89
  Z"
/>
<path fill="#111726" d="
  M 174.88 126.18
  Q 184.48 127.43 184.51 136.23
  Q 184.54 144.73 184.65 154.00
  C 184.79 165.34 175.55 167.66 167.20 171.65
  Q 141.28 184.03 128.66 190.41
  Q 123.01 193.26 116.66 196.09
  C 112.30 198.02 107.75 196.32 103.50 194.22
  Q 79.51 182.35 54.67 170.21
  Q 51.23 168.60 46.54 165.93
  Q 42.95 163.89 41.22 160.49
  C 39.15 156.41 39.65 149.34 39.79 144.47
  Q 40.16 142.90 40.22 141.25
  Q 40.25 140.47 40.88 140.85
  Q 40.96 140.90 41.05 140.93
  Q 41.22 141.00 41.32 141.15
  Q 41.85 141.99 42.87 141.83
  Q 45.26 141.46 47.52 141.39
  Q 49.32 141.33 51.08 142.12
  Q 53.73 143.30 56.50 144.19
  Q 57.07 144.37 57.45 143.91
  Q 57.54 143.80 57.67 143.76
  Q 58.42 143.54 58.43 144.32
  Q 58.46 145.30 59.24 145.20
  Q 59.18 145.66 59.33 146.04
  L 59.31 148.25
  Q 59.31 148.77 59.69 149.12
  Q 61.85 151.10 64.48 152.47
  C 80.10 160.55 96.05 167.95 111.76 175.64
  Q 112.45 175.98 112.66 175.45
  Q 112.79 175.47 112.92 175.48
  Q 113.01 175.49 113.09 175.45
  Q 137.06 163.68 162.77 151.62
  A 3.85 3.84 -11.9 0 0 164.98 148.24
  Q 165.11 142.75 165.08 137.01
  Q 165.06 132.39 166.32 129.66
  Q 169.74 125.98 174.88 126.18
  Z"
/>
<path fill="#abbcc2" d="
  M 166.32 129.66
  Q 165.06 132.39 165.08 137.01
  Q 165.11 142.75 164.98 148.24
  A 3.85 3.84 -11.9 0 1 162.77 151.62
  Q 137.06 163.68 113.09 175.45
  Q 113.01 175.49 112.92 175.48
  Q 112.79 175.47 112.66 175.45
  L 111.89 173.68
  Q 111.69 173.23 111.70 172.75
  L 111.80 151.71
  Q 111.81 151.09 112.42 150.98
  C 114.93 150.50 117.39 150.41 119.94 149.76
  Q 130.22 147.14 138.27 139.01
  Q 142.14 135.10 142.75 130.16
  L 166.32 129.66
  Z"
/>
<path fill="#dcefda" d="
  M 142.75 130.16
  Q 142.14 135.10 138.27 139.01
  Q 130.22 147.14 119.94 149.76
  C 117.39 150.41 114.93 150.50 112.42 150.98
  Q 111.81 151.09 111.80 151.71
  L 111.70 172.75
  Q 111.69 173.23 111.89 173.68
  L 112.66 175.45
  Q 112.45 175.98 111.76 175.64
  C 96.05 167.95 80.10 160.55 64.48 152.47
  Q 61.85 151.10 59.69 149.12
  Q 59.31 148.77 59.31 148.25
  L 59.33 146.04
  L 59.78 147.03
  Q 59.96 147.42 60.35 147.22
  Q 62.19 146.30 64.28 145.74
  Q 64.68 145.63 65.00 145.90
  Q 65.22 146.09 65.49 145.97
  Q 67.11 145.24 69.08 145.63
  Q 69.57 145.72 70.02 145.51
  Q 72.78 144.22 75.25 142.20
  Q 77.33 140.49 79.96 139.56
  Q 80.26 139.45 80.36 139.15
  Q 80.73 137.96 81.99 137.51
  Q 82.42 137.36 82.70 136.98
  Q 84.01 135.24 86.30 135.16
  Q 93.29 144.32 103.58 147.56
  Q 112.45 150.37 121.46 147.86
  Q 130.58 145.33 137.45 138.22
  Q 141.76 133.76 140.30 130.06
  Q 139.31 129.14 142.75 130.16
  Z"
/>
<path fill="#ff8803" d="
  M 74.40 189.22
  Q 77.97 192.76 81.37 196.14
  Q 88.58 203.33 95.69 209.04
  C 99.45 212.06 102.13 215.86 106.09 218.74
  Q 107.42 219.71 109.13 219.82
  Q 109.63 219.85 110.06 220.11
  Q 112.38 221.53 114.95 221.64
  Q 91.66 222.59 70.40 213.31
  Q 67.52 212.05 65.27 211.01
  Q 67.60 205.25 70.64 200.13
  Q 71.14 199.29 70.61 198.76
  Q 70.28 198.42 70.40 197.97
  Q 71.61 193.64 74.40 189.22
  Z"
/>
</svg>
